<svg id="visual" viewBox="0 0 1080 150" width="1080" height="150" xmlns="http://www.w3.org/2000/svg" xmlns:xlink="http://www.w3.org/1999/xlink" version="1.1"><rect x="0" y="0" width="1080" height="150" fill="#000000"></rect><path d="M0 79L15 71C30 63 60 47 90 45.7C120 44.3 150 57.7 180 53.7C210 49.7 240 28.3 270 20.7C300 13 330 19 360 30.3C390 41.7 420 58.3 450 63C480 67.7 510 60.3 540 69.5C570 78.7 600 104.3 630 103.3C660 102.3 690 74.7 720 55.7C750 36.7 780 26.3 810 32.8C840 39.3 870 62.7 900 69.5C930 76.3 960 66.7 990 53.7C1020 40.7 1050 24.3 1065 16.2L1080 8L1080 151L1065 151C1050 151 1020 151 990 151C960 151 930 151 900 151C870 151 840 151 810 151C780 151 750 151 720 151C690 151 660 151 630 151C600 151 570 151 540 151C510 151 480 151 450 151C420 151 390 151 360 151C330 151 300 151 270 151C240 151 210 151 180 151C150 151 120 151 90 151C60 151 30 151 15 151L0 151Z" fill="#198754"></path><path d="M0 88L15 88.3C30 88.7 60 89.3 90 85.3C120 81.3 150 72.7 180 67.5C210 62.3 240 60.7 270 55.8C300 51 330 43 360 48.2C390 53.3 420 71.7 450 82.3C480 93 510 96 540 87.2C570 78.3 600 57.7 630 56.7C660 55.7 690 74.3 720 74.3C750 74.3 780 55.7 810 51.7C840 47.7 870 58.3 900 71C930 83.7 960 98.3 990 102.2C1020 106 1050 99 1065 95.5L1080 92L1080 151L1065 151C1050 151 1020 151 990 151C960 151 930 151 900 151C870 151 840 151 810 151C780 151 750 151 720 151C690 151 660 151 630 151C600 151 570 151 540 151C510 151 480 151 450 151C420 151 390 151 360 151C330 151 300 151 270 151C240 151 210 151 180 151C150 151 120 151 90 151C60 151 30 151 15 151L0 151Z" fill="#5ea782"></path><path d="M0 71L15 78C30 85 60 99 90 100.8C120 102.7 150 92.3 180 89.2C210 86 240 90 270 92.5C300 95 330 96 360 101.7C390 107.3 420 117.7 450 116C480 114.3 510 100.7 540 99.7C570 98.7 600 110.3 630 109.2C660 108 690 94 720 93C750 92 780 104 810 108.2C840 112.3 870 108.7 900 104.3C930 100 960 95 990 99.2C1020 103.3 1050 116.7 1065 123.3L1080 130L1080 151L1065 151C1050 151 1020 151 990 151C960 151 930 151 900 151C870 151 840 151 810 151C780 151 750 151 720 151C690 151 660 151 630 151C600 151 570 151 540 151C510 151 480 151 450 151C420 151 390 151 360 151C330 151 300 151 270 151C240 151 210 151 180 151C150 151 120 151 90 151C60 151 30 151 15 151L0 151Z" fill="#97c7b0"></path><path d="M0 122L15 119.2C30 116.3 60 110.7 90 111.7C120 112.7 150 120.3 180 123.2C210 126 240 124 270 126.2C300 128.3 330 134.7 360 133.5C390 132.3 420 123.7 450 122.5C480 121.3 510 127.7 540 124.7C570 121.7 600 109.3 630 110.8C660 112.3 690 127.7 720 128C750 128.3 780 113.7 810 109.5C840 105.3 870 111.7 900 112.3C930 113 960 108 990 109.8C1020 111.7 1050 120.3 1065 124.7L1080 129L1080 151L1065 151C1050 151 1020 151 990 151C960 151 930 151 900 151C870 151 840 151 810 151C780 151 750 151 720 151C690 151 660 151 630 151C600 151 570 151 540 151C510 151 480 151 450 151C420 151 390 151 360 151C330 151 300 151 270 151C240 151 210 151 180 151C150 151 120 151 90 151C60 151 30 151 15 151L0 151Z" fill="#d1e7dd"></path></svg>