<svg id="visual" viewBox="0 0 1080 80" width="1080" height="80" xmlns="http://www.w3.org/2000/svg" xmlns:xlink="http://www.w3.org/1999/xlink" version="1.1"><rect x="0" y="0" width="1080" height="80" fill="#ffffff"></rect><path d="M0 50L25.7 49.3C51.3 48.7 102.7 47.3 154.2 45.7C205.7 44 257.3 42 308.8 43.8C360.3 45.7 411.7 51.3 463 56C514.3 60.7 565.7 64.3 617 60.3C668.3 56.3 719.7 44.7 771.2 41.2C822.7 37.7 874.3 42.3 925.8 45.7C977.3 49 1028.7 51 1054.3 52L1080 53L1080 0L1054.3 0C1028.7 0 977.3 0 925.8 0C874.3 0 822.7 0 771.2 0C719.7 0 668.3 0 617 0C565.7 0 514.3 0 463 0C411.7 0 360.3 0 308.8 0C257.3 0 205.7 0 154.2 0C102.7 0 51.3 0 25.7 0L0 0Z" fill="#d81616"></path><path d="M0 34L25.7 32.5C51.3 31 102.7 28 154.2 30.3C205.7 32.7 257.3 40.3 308.8 41.8C360.3 43.3 411.7 38.7 463 38.2C514.3 37.7 565.7 41.3 617 40.5C668.3 39.7 719.7 34.3 771.2 32.2C822.7 30 874.3 31 925.8 31.3C977.3 31.7 1028.7 31.3 1054.3 31.2L1080 31L1080 0L1054.3 0C1028.7 0 977.3 0 925.8 0C874.3 0 822.7 0 771.2 0C719.7 0 668.3 0 617 0C565.7 0 514.3 0 463 0C411.7 0 360.3 0 308.8 0C257.3 0 205.7 0 154.2 0C102.7 0 51.3 0 25.7 0L0 0Z" fill="#a60607"></path><path d="M0 22L25.7 23C51.3 24 102.7 26 154.2 28.7C205.7 31.3 257.3 34.7 308.8 33.7C360.3 32.7 411.7 27.3 463 24C514.3 20.7 565.7 19.3 617 18.2C668.3 17 719.7 16 771.2 19.5C822.7 23 874.3 31 925.8 33.8C977.3 36.7 1028.7 34.3 1054.3 33.2L1080 32L1080 0L1054.3 0C1028.7 0 977.3 0 925.8 0C874.3 0 822.7 0 771.2 0C719.7 0 668.3 0 617 0C565.7 0 514.3 0 463 0C411.7 0 360.3 0 308.8 0C257.3 0 205.7 0 154.2 0C102.7 0 51.3 0 25.7 0L0 0Z" fill="#720000"></path><path d="M0 23L25.7 23C51.3 23 102.7 23 154.2 22.8C205.7 22.7 257.3 22.3 308.8 19.2C360.3 16 411.7 10 463 9.5C514.3 9 565.7 14 617 17.7C668.3 21.3 719.7 23.7 771.2 21.8C822.7 20 874.3 14 925.8 11.7C977.3 9.3 1028.7 10.7 1054.3 11.3L1080 12L1080 0L1054.3 0C1028.7 0 977.3 0 925.8 0C874.3 0 822.7 0 771.2 0C719.7 0 668.3 0 617 0C565.7 0 514.3 0 463 0C411.7 0 360.3 0 308.8 0C257.3 0 205.7 0 154.2 0C102.7 0 51.3 0 25.7 0L0 0Z" fill="#000000"></path></svg>