<svg id="visual" viewBox="0 0 1080 30" width="1080" height="30" xmlns="http://www.w3.org/2000/svg" xmlns:xlink="http://www.w3.org/1999/xlink" version="1.1"><path d="M0 6L47 9L94 8L141 6L188 4L235 5L282 6L329 5L376 4L423 9L470 4L517 11L563 11L610 13L657 3L704 7L751 9L798 6L845 12L892 9L939 13L986 6L1033 13L1080 10L1080 0L1033 0L986 0L939 0L892 0L845 0L798 0L751 0L704 0L657 0L610 0L563 0L517 0L470 0L423 0L376 0L329 0L282 0L235 0L188 0L141 0L94 0L47 0L0 0Z" fill="#d1e7dd"></path><path d="M0 11L47 23L94 16L141 26L188 14L235 15L282 21L329 18L376 15L423 26L470 22L517 21L563 26L610 18L657 15L704 18L751 21L798 23L845 18L892 15L939 20L986 16L1033 24L1080 17L1080 8L1033 11L986 4L939 11L892 7L845 10L798 4L751 7L704 5L657 1L610 11L563 9L517 9L470 2L423 7L376 2L329 3L282 4L235 3L188 2L141 4L94 6L47 7L0 4Z" fill="#a3cfba"></path><path d="M0 31L47 31L94 31L141 31L188 31L235 31L282 31L329 31L376 31L423 31L470 31L517 31L563 31L610 31L657 31L704 31L751 31L798 31L845 31L892 31L939 31L986 31L1033 31L1080 31L1080 15L1033 22L986 14L939 18L892 13L845 16L798 21L751 19L704 16L657 13L610 16L563 24L517 19L470 20L423 24L376 13L329 16L282 19L235 13L188 12L141 24L94 14L47 21L0 9Z" fill="#74b798"></path></svg>