<svg id="visual" viewBox="0 0 1080 40" width="1080" height="40" xmlns="http://www.w3.org/2000/svg" xmlns:xlink="http://www.w3.org/1999/xlink" version="1.1"><rect x="0" y="0" width="1080" height="40" fill="#ffffff"></rect><path d="M0 36L5.8 31.7C11.7 27.3 23.3 18.7 35 17.5C46.7 16.3 58.3 22.7 70 23.7C81.7 24.7 93.3 20.3 104.8 17C116.3 13.7 127.7 11.3 139.2 10.3C150.7 9.3 162.3 9.7 174 14.7C185.7 19.7 197.3 29.3 209 33.7C220.7 38 232.3 37 244 31C255.7 25 267.3 14 279 11.2C290.7 8.3 302.3 13.7 313.8 16.2C325.3 18.7 336.7 18.3 348.2 15.2C359.7 12 371.3 6 383 7.3C394.7 8.7 406.3 17.3 418 19.8C429.7 22.3 441.3 18.7 453 19.7C464.7 20.7 476.3 26.3 488 23.8C499.7 21.3 511.3 10.7 522.8 11.3C534.3 12 545.7 24 557.2 28.7C568.7 33.3 580.3 30.7 592 28.7C603.7 26.7 615.3 25.3 627 21.5C638.7 17.7 650.3 11.3 662 11.3C673.7 11.3 685.3 17.7 697 19C708.7 20.3 720.3 16.7 731.8 14.3C743.3 12 754.7 11 766.2 9.7C777.7 8.3 789.3 6.7 801 5.5C812.7 4.3 824.3 3.7 836 7.3C847.7 11 859.3 19 871 23.8C882.7 28.7 894.3 30.3 906 29.2C917.7 28 929.3 24 940.8 25C952.3 26 963.7 32 975.2 28.8C986.7 25.7 998.3 13.3 1010 8.8C1021.7 4.3 1033.3 7.7 1045 11.7C1056.7 15.7 1068.3 20.3 1074.2 22.7L1080 25L1080 41L1074.2 41C1068.3 41 1056.7 41 1045 41C1033.3 41 1021.7 41 1010 41C998.3 41 986.7 41 975.2 41C963.7 41 952.3 41 940.8 41C929.3 41 917.7 41 906 41C894.3 41 882.7 41 871 41C859.3 41 847.7 41 836 41C824.3 41 812.7 41 801 41C789.3 41 777.7 41 766.2 41C754.7 41 743.3 41 731.8 41C720.3 41 708.7 41 697 41C685.3 41 673.7 41 662 41C650.3 41 638.7 41 627 41C615.3 41 603.7 41 592 41C580.3 41 568.7 41 557.2 41C545.7 41 534.3 41 522.8 41C511.3 41 499.7 41 488 41C476.3 41 464.7 41 453 41C441.3 41 429.7 41 418 41C406.3 41 394.7 41 383 41C371.3 41 359.7 41 348.2 41C336.7 41 325.3 41 313.8 41C302.3 41 290.7 41 279 41C267.3 41 255.7 41 244 41C232.3 41 220.7 41 209 41C197.3 41 185.7 41 174 41C162.3 41 150.7 41 139.2 41C127.7 41 116.3 41 104.8 41C93.3 41 81.7 41 70 41C58.3 41 46.7 41 35 41C23.3 41 11.7 41 5.8 41L0 41Z" fill="#ff0000" stroke-linecap="round" stroke-linejoin="miter"></path></svg>