<svg id="visual" viewBox="0 0 900 250" width="900" height="250" xmlns="http://www.w3.org/2000/svg" xmlns:xlink="http://www.w3.org/1999/xlink" version="1.1"><rect x="0" y="0" width="900" height="250" fill="#ffffff"></rect><defs><linearGradient id="grad1_0" x1="72.2%" y1="0%" x2="100%" y2="100%"><stop offset="-22%" stop-color="#ff0000" stop-opacity="1"></stop><stop offset="122%" stop-color="#ff0000" stop-opacity="1"></stop></linearGradient></defs><defs><linearGradient id="grad1_1" x1="72.2%" y1="0%" x2="100%" y2="100%"><stop offset="-22%" stop-color="#ff0000" stop-opacity="1"></stop><stop offset="122%" stop-color="#ff9e81" stop-opacity="1"></stop></linearGradient></defs><defs><linearGradient id="grad1_2" x1="72.2%" y1="0%" x2="100%" y2="100%"><stop offset="-22%" stop-color="#ffffff" stop-opacity="1"></stop><stop offset="122%" stop-color="#ff9e81" stop-opacity="1"></stop></linearGradient></defs><defs><linearGradient id="grad2_0" x1="0%" y1="0%" x2="27.8%" y2="100%"><stop offset="-22%" stop-color="#ff0000" stop-opacity="1"></stop><stop offset="122%" stop-color="#ff0000" stop-opacity="1"></stop></linearGradient></defs><defs><linearGradient id="grad2_1" x1="0%" y1="0%" x2="27.8%" y2="100%"><stop offset="-22%" stop-color="#ff9e81" stop-opacity="1"></stop><stop offset="122%" stop-color="#ff0000" stop-opacity="1"></stop></linearGradient></defs><defs><linearGradient id="grad2_2" x1="0%" y1="0%" x2="27.8%" y2="100%"><stop offset="-22%" stop-color="#ff9e81" stop-opacity="1"></stop><stop offset="122%" stop-color="#ffffff" stop-opacity="1"></stop></linearGradient></defs><g transform="translate(900, 0)"><path d="M0 250C-12.6 246.4 -25.2 242.8 -38.2 241C-51.1 239.2 -64.4 239.3 -76.6 235.9C-88.9 232.4 -100.2 225.4 -111.7 219.2C-123.2 212.9 -135 207.4 -145.2 199.8C-155.4 192.2 -164.1 182.5 -173.2 173.2C-182.4 164 -191.9 155.1 -199 144.6C-206.1 134.1 -210.7 122 -217.4 110.8C-224.1 99.5 -232.9 89.2 -237.8 77.3C-242.6 65.4 -243.6 51.9 -244.9 38.8C-246.3 25.7 -248.2 12.8 -250 0L0 0Z" fill="#ffcfbf"></path><path d="M0 166.7C-8.4 164.3 -16.8 161.8 -25.4 160.7C-34.1 159.5 -42.9 159.5 -51.1 157.2C-59.3 154.9 -66.8 150.3 -74.5 146.1C-82.1 142 -90 138.3 -96.8 133.2C-103.6 128.1 -109.4 121.7 -115.5 115.5C-121.6 109.3 -128 103.4 -132.7 96.4C-137.4 89.4 -140.5 81.3 -144.9 73.8C-149.4 66.4 -155.3 59.4 -158.5 51.5C-161.8 43.6 -162.4 34.6 -163.3 25.9C-164.2 17.1 -165.4 8.6 -166.7 0L0 0Z" fill="#ff6846"></path><path d="M0 83.3C-4.2 82.1 -8.4 80.9 -12.7 80.3C-17 79.7 -21.5 79.8 -25.5 78.6C-29.6 77.5 -33.4 75.1 -37.2 73.1C-41.1 71 -45 69.1 -48.4 66.6C-51.8 64.1 -54.7 60.8 -57.7 57.7C-60.8 54.7 -64 51.7 -66.3 48.2C-68.7 44.7 -70.2 40.7 -72.5 36.9C-74.7 33.2 -77.6 29.7 -79.3 25.8C-80.9 21.8 -81.2 17.3 -81.6 12.9C-82.1 8.6 -82.7 4.3 -83.3 0L0 0Z" fill="#ff0000"></path></g><g transform="translate(0, 250)"><path d="M0 -250C12.7 -245.5 25.3 -241 37.5 -237C49.8 -233.1 61.6 -229.6 73.2 -225.4C84.9 -221.2 96.3 -216.2 107.6 -211.2C118.9 -206.1 130.2 -201 142.2 -195.8C154.3 -190.6 167 -185.2 176.8 -176.8C186.6 -168.3 193.4 -156.8 200.6 -145.8C207.8 -134.7 215.4 -124.1 220.1 -112.1C224.8 -100.2 226.5 -87 229.2 -74.5C231.9 -62 235.4 -50.2 239 -37.9C242.6 -25.6 246.3 -12.8 250 0L0 0Z" fill="#ffcfbf"></path><path d="M0 -166.7C8.4 -163.7 16.9 -160.7 25 -158C33.2 -155.4 41.1 -153.1 48.8 -150.3C56.6 -147.5 64.2 -144.1 71.7 -140.8C79.3 -137.4 86.8 -134 94.8 -130.5C102.8 -127 111.3 -123.5 117.9 -117.9C124.4 -112.2 129 -104.6 133.8 -97.2C138.6 -89.8 143.6 -82.7 146.7 -74.8C149.8 -66.8 151 -58 152.8 -49.6C154.6 -41.3 156.9 -33.4 159.3 -25.2C161.8 -17 164.2 -8.5 166.7 0L0 0Z" fill="#ff6846"></path><path d="M0 -83.3C4.2 -81.8 8.4 -80.3 12.5 -79C16.6 -77.7 20.5 -76.5 24.4 -75.1C28.3 -73.7 32.1 -72.1 35.9 -70.4C39.6 -68.7 43.4 -67 47.4 -65.3C51.4 -63.5 55.7 -61.7 58.9 -58.9C62.2 -56.1 64.5 -52.3 66.9 -48.6C69.3 -44.9 71.8 -41.4 73.4 -37.4C74.9 -33.4 75.5 -29 76.4 -24.8C77.3 -20.7 78.5 -16.7 79.7 -12.6C80.9 -8.5 82.1 -4.3 83.3 0L0 0Z" fill="#ff0000"></path></g></svg>