<svg id="visual" viewBox="0 0 1080 89" width="1080" height="89" xmlns="http://www.w3.org/2000/svg" xmlns:xlink="http://www.w3.org/1999/xlink" version="1.1"><rect x="0" y="0" width="1080" height="89" fill="#000000"></rect><path d="M0 32L10.7 37C21.3 42 42.7 52 63.8 55C85 58 106 54 127.2 51.3C148.3 48.7 169.7 47.3 190.8 46.3C212 45.3 233 44.7 254.2 46.5C275.3 48.3 296.7 52.7 317.8 48.8C339 45 360 33 381.2 27.5C402.3 22 423.7 23 444.8 27.3C466 31.7 487 39.3 508.2 41.2C529.3 43 550.7 39 571.8 38.2C593 37.3 614 39.7 635.2 38.3C656.3 37 677.7 32 698.8 32.7C720 33.3 741 39.7 762.2 41.8C783.3 44 804.7 42 825.8 41C847 40 868 40 889.2 39.8C910.3 39.7 931.7 39.3 952.8 43.2C974 47 995 55 1016.2 54.2C1037.3 53.3 1058.7 43.7 1069.3 38.8L1080 34L1080 90L1069.3 90C1058.7 90 1037.3 90 1016.2 90C995 90 974 90 952.8 90C931.7 90 910.3 90 889.2 90C868 90 847 90 825.8 90C804.7 90 783.3 90 762.2 90C741 90 720 90 698.8 90C677.7 90 656.3 90 635.2 90C614 90 593 90 571.8 90C550.7 90 529.3 90 508.2 90C487 90 466 90 444.8 90C423.7 90 402.3 90 381.2 90C360 90 339 90 317.8 90C296.7 90 275.3 90 254.2 90C233 90 212 90 190.8 90C169.7 90 148.3 90 127.2 90C106 90 85 90 63.8 90C42.7 90 21.3 90 10.7 90L0 90Z" fill="#d81616"></path><path d="M0 47L10.7 47.5C21.3 48 42.7 49 63.8 49.7C85 50.3 106 50.7 127.2 51.2C148.3 51.7 169.7 52.3 190.8 52.2C212 52 233 51 254.2 49.8C275.3 48.7 296.7 47.3 317.8 46.3C339 45.3 360 44.7 381.2 44.5C402.3 44.3 423.7 44.7 444.8 43.2C466 41.7 487 38.3 508.2 36.2C529.3 34 550.7 33 571.8 36.7C593 40.3 614 48.7 635.2 53.2C656.3 57.7 677.7 58.3 698.8 54.7C720 51 741 43 762.2 41.7C783.3 40.3 804.7 45.7 825.8 50.3C847 55 868 59 889.2 55.8C910.3 52.7 931.7 42.3 952.8 40C974 37.7 995 43.3 1016.2 48.5C1037.3 53.7 1058.7 58.3 1069.3 60.7L1080 63L1080 90L1069.3 90C1058.7 90 1037.3 90 1016.2 90C995 90 974 90 952.8 90C931.7 90 910.3 90 889.2 90C868 90 847 90 825.8 90C804.7 90 783.3 90 762.2 90C741 90 720 90 698.8 90C677.7 90 656.3 90 635.2 90C614 90 593 90 571.8 90C550.7 90 529.3 90 508.2 90C487 90 466 90 444.8 90C423.7 90 402.3 90 381.2 90C360 90 339 90 317.8 90C296.7 90 275.3 90 254.2 90C233 90 212 90 190.8 90C169.7 90 148.3 90 127.2 90C106 90 85 90 63.8 90C42.7 90 21.3 90 10.7 90L0 90Z" fill="#e95842"></path><path d="M0 53L10.7 56C21.3 59 42.7 65 63.8 68C85 71 106 71 127.2 66.8C148.3 62.7 169.7 54.3 190.8 51.2C212 48 233 50 254.2 49.5C275.3 49 296.7 46 317.8 47C339 48 360 53 381.2 52.7C402.3 52.3 423.7 46.7 444.8 45C466 43.3 487 45.7 508.2 46C529.3 46.3 550.7 44.7 571.8 47.5C593 50.3 614 57.7 635.2 60.2C656.3 62.7 677.7 60.3 698.8 60.2C720 60 741 62 762.2 63.7C783.3 65.3 804.7 66.7 825.8 67C847 67.3 868 66.7 889.2 64.7C910.3 62.7 931.7 59.3 952.8 55.2C974 51 995 46 1016.2 44C1037.3 42 1058.7 43 1069.3 43.5L1080 44L1080 90L1069.3 90C1058.7 90 1037.3 90 1016.2 90C995 90 974 90 952.8 90C931.7 90 910.3 90 889.2 90C868 90 847 90 825.8 90C804.7 90 783.3 90 762.2 90C741 90 720 90 698.8 90C677.7 90 656.3 90 635.2 90C614 90 593 90 571.8 90C550.7 90 529.3 90 508.2 90C487 90 466 90 444.8 90C423.7 90 402.3 90 381.2 90C360 90 339 90 317.8 90C296.7 90 275.3 90 254.2 90C233 90 212 90 190.8 90C169.7 90 148.3 90 127.2 90C106 90 85 90 63.8 90C42.7 90 21.3 90 10.7 90L0 90Z" fill="#f6846e"></path><path d="M0 53L10.7 55.7C21.3 58.3 42.7 63.7 63.8 66C85 68.3 106 67.7 127.2 66C148.3 64.3 169.7 61.7 190.8 59.7C212 57.7 233 56.3 254.2 57C275.3 57.7 296.7 60.3 317.8 59.8C339 59.3 360 55.7 381.2 55.3C402.3 55 423.7 58 444.8 60.8C466 63.7 487 66.3 508.2 66.8C529.3 67.3 550.7 65.7 571.8 64.7C593 63.7 614 63.3 635.2 61.5C656.3 59.7 677.7 56.3 698.8 56C720 55.7 741 58.3 762.2 61.5C783.3 64.7 804.7 68.3 825.8 68.7C847 69 868 66 889.2 64.2C910.3 62.3 931.7 61.7 952.8 62.8C974 64 995 67 1016.2 65.7C1037.3 64.3 1058.7 58.7 1069.3 55.8L1080 53L1080 90L1069.3 90C1058.7 90 1037.3 90 1016.2 90C995 90 974 90 952.8 90C931.7 90 910.3 90 889.2 90C868 90 847 90 825.8 90C804.7 90 783.3 90 762.2 90C741 90 720 90 698.8 90C677.7 90 656.3 90 635.2 90C614 90 593 90 571.8 90C550.7 90 529.3 90 508.2 90C487 90 466 90 444.8 90C423.7 90 402.3 90 381.2 90C360 90 339 90 317.8 90C296.7 90 275.3 90 254.2 90C233 90 212 90 190.8 90C169.7 90 148.3 90 127.2 90C106 90 85 90 63.8 90C42.7 90 21.3 90 10.7 90L0 90Z" fill="#ffae9c"></path><path d="M0 77L10.7 77.2C21.3 77.3 42.7 77.7 63.8 77.3C85 77 106 76 127.2 75C148.3 74 169.7 73 190.8 70.5C212 68 233 64 254.2 63.8C275.3 63.7 296.7 67.3 317.8 67.3C339 67.3 360 63.7 381.2 63.7C402.3 63.7 423.7 67.3 444.8 67.7C466 68 487 65 508.2 63.5C529.3 62 550.7 62 571.8 62.3C593 62.7 614 63.3 635.2 64.7C656.3 66 677.7 68 698.8 70C720 72 741 74 762.2 73C783.3 72 804.7 68 825.8 67.8C847 67.7 868 71.3 889.2 72.8C910.3 74.3 931.7 73.7 952.8 73.7C974 73.7 995 74.3 1016.2 74C1037.3 73.7 1058.7 72.3 1069.3 71.7L1080 71L1080 90L1069.3 90C1058.7 90 1037.3 90 1016.2 90C995 90 974 90 952.8 90C931.7 90 910.3 90 889.2 90C868 90 847 90 825.8 90C804.7 90 783.3 90 762.2 90C741 90 720 90 698.8 90C677.7 90 656.3 90 635.2 90C614 90 593 90 571.8 90C550.7 90 529.3 90 508.2 90C487 90 466 90 444.8 90C423.7 90 402.3 90 381.2 90C360 90 339 90 317.8 90C296.7 90 275.3 90 254.2 90C233 90 212 90 190.8 90C169.7 90 148.3 90 127.2 90C106 90 85 90 63.8 90C42.7 90 21.3 90 10.7 90L0 90Z" fill="#ffd6cd"></path><path d="M0 81L10.7 79.7C21.3 78.3 42.7 75.7 63.8 73.7C85 71.7 106 70.3 127.2 70.5C148.3 70.7 169.7 72.3 190.8 73.8C212 75.3 233 76.7 254.2 76.3C275.3 76 296.7 74 317.8 74.2C339 74.3 360 76.7 381.2 77.2C402.3 77.7 423.7 76.3 444.8 74.8C466 73.3 487 71.7 508.2 71.5C529.3 71.3 550.7 72.7 571.8 73.3C593 74 614 74 635.2 75.2C656.3 76.3 677.7 78.7 698.8 78C720 77.3 741 73.7 762.2 72.3C783.3 71 804.7 72 825.8 72.8C847 73.7 868 74.3 889.2 74.3C910.3 74.3 931.7 73.7 952.8 73.3C974 73 995 73 1016.2 74.2C1037.3 75.3 1058.7 77.7 1069.3 78.8L1080 80L1080 90L1069.3 90C1058.7 90 1037.3 90 1016.2 90C995 90 974 90 952.8 90C931.7 90 910.3 90 889.2 90C868 90 847 90 825.8 90C804.7 90 783.3 90 762.2 90C741 90 720 90 698.8 90C677.7 90 656.3 90 635.2 90C614 90 593 90 571.8 90C550.7 90 529.3 90 508.2 90C487 90 466 90 444.8 90C423.7 90 402.3 90 381.2 90C360 90 339 90 317.8 90C296.7 90 275.3 90 254.2 90C233 90 212 90 190.8 90C169.7 90 148.3 90 127.2 90C106 90 85 90 63.8 90C42.7 90 21.3 90 10.7 90L0 90Z" fill="#ffffff"></path></svg>