<svg id="visual" viewBox="0 0 960 540" width="960" height="540" xmlns="http://www.w3.org/2000/svg" xmlns:xlink="http://www.w3.org/1999/xlink" version="1.1"><rect x="0" y="0" width="960" height="540" fill="#ffffff"></rect><defs><linearGradient id="grad1_0" x1="43.8%" y1="0%" x2="100%" y2="100%"><stop offset="14.444444444444446%" stop-color="#ffffff" stop-opacity="1"></stop><stop offset="85.55555555555554%" stop-color="#ffffff" stop-opacity="1"></stop></linearGradient></defs><defs><linearGradient id="grad2_0" x1="0%" y1="0%" x2="56.3%" y2="100%"><stop offset="14.444444444444446%" stop-color="#ffffff" stop-opacity="1"></stop><stop offset="85.55555555555554%" stop-color="#ffffff" stop-opacity="1"></stop></linearGradient></defs><g transform="translate(960, 0)"><path d="M0 486C-59 458 -117.9 430.1 -164.9 398.2C-211.9 366.3 -246.9 330.5 -297.7 297.7C-348.5 264.9 -415 235.1 -449 186C-483 136.9 -484.5 68.4 -486 0L0 0Z" fill="#ff0000"></path></g><g transform="translate(0, 540)"><path d="M0 -486C60.2 -457.8 120.3 -429.6 163 -393.6C205.7 -357.6 230.9 -313.8 282.1 -282.1C333.4 -250.5 410.7 -231 449 -186C487.3 -141 486.7 -70.5 486 0L0 0Z" fill="#ff0000"></path></g></svg>