<svg id="visual" viewBox="0 0 1000 400" width="1000" height="400" xmlns="http://www.w3.org/2000/svg" xmlns:xlink="http://www.w3.org/1999/xlink" version="1.1"><rect x="0" y="0" width="1000" height="400" fill="#ffffff"></rect><path d="M0 82L20.8 82C41.7 82 83.3 82 125 81.5C166.7 81 208.3 80 250 75.8C291.7 71.7 333.3 64.3 375 63.5C416.7 62.7 458.3 68.3 500 74.2C541.7 80 583.3 86 625 84.5C666.7 83 708.3 74 750 69.3C791.7 64.7 833.3 64.3 875 58.7C916.7 53 958.3 42 979.2 36.5L1000 31L1000 401L979.2 401C958.3 401 916.7 401 875 401C833.3 401 791.7 401 750 401C708.3 401 666.7 401 625 401C583.3 401 541.7 401 500 401C458.3 401 416.7 401 375 401C333.3 401 291.7 401 250 401C208.3 401 166.7 401 125 401C83.3 401 41.7 401 20.8 401L0 401Z" fill="#ffffff"></path><path d="M0 78L20.8 84C41.7 90 83.3 102 125 103.7C166.7 105.3 208.3 96.7 250 95C291.7 93.3 333.3 98.7 375 97C416.7 95.3 458.3 86.7 500 85.8C541.7 85 583.3 92 625 96.2C666.7 100.3 708.3 101.7 750 99.8C791.7 98 833.3 93 875 86.8C916.7 80.7 958.3 73.3 979.2 69.7L1000 66L1000 401L979.2 401C958.3 401 916.7 401 875 401C833.3 401 791.7 401 750 401C708.3 401 666.7 401 625 401C583.3 401 541.7 401 500 401C458.3 401 416.7 401 375 401C333.3 401 291.7 401 250 401C208.3 401 166.7 401 125 401C83.3 401 41.7 401 20.8 401L0 401Z" fill="#dadada"></path><path d="M0 128L20.8 122C41.7 116 83.3 104 125 104.2C166.7 104.3 208.3 116.7 250 120.3C291.7 124 333.3 119 375 117C416.7 115 458.3 116 500 117.2C541.7 118.3 583.3 119.7 625 123.5C666.7 127.3 708.3 133.7 750 132.2C791.7 130.7 833.3 121.3 875 115.7C916.7 110 958.3 108 979.2 107L1000 106L1000 401L979.2 401C958.3 401 916.7 401 875 401C833.3 401 791.7 401 750 401C708.3 401 666.7 401 625 401C583.3 401 541.7 401 500 401C458.3 401 416.7 401 375 401C333.3 401 291.7 401 250 401C208.3 401 166.7 401 125 401C83.3 401 41.7 401 20.8 401L0 401Z" fill="#b6b6b6"></path><path d="M0 153L20.8 150C41.7 147 83.3 141 125 144.2C166.7 147.3 208.3 159.7 250 161.8C291.7 164 333.3 156 375 153.3C416.7 150.7 458.3 153.3 500 156C541.7 158.7 583.3 161.3 625 156C666.7 150.7 708.3 137.3 750 135.3C791.7 133.3 833.3 142.7 875 145.3C916.7 148 958.3 144 979.2 142L1000 140L1000 401L979.2 401C958.3 401 916.7 401 875 401C833.3 401 791.7 401 750 401C708.3 401 666.7 401 625 401C583.3 401 541.7 401 500 401C458.3 401 416.7 401 375 401C333.3 401 291.7 401 250 401C208.3 401 166.7 401 125 401C83.3 401 41.7 401 20.8 401L0 401Z" fill="#939393"></path><path d="M0 158L20.8 158C41.7 158 83.3 158 125 157.8C166.7 157.7 208.3 157.3 250 159.3C291.7 161.3 333.3 165.7 375 170.5C416.7 175.3 458.3 180.7 500 183.2C541.7 185.7 583.3 185.3 625 186.5C666.7 187.7 708.3 190.3 750 189.2C791.7 188 833.3 183 875 183.7C916.7 184.3 958.3 190.7 979.2 193.8L1000 197L1000 401L979.2 401C958.3 401 916.7 401 875 401C833.3 401 791.7 401 750 401C708.3 401 666.7 401 625 401C583.3 401 541.7 401 500 401C458.3 401 416.7 401 375 401C333.3 401 291.7 401 250 401C208.3 401 166.7 401 125 401C83.3 401 41.7 401 20.8 401L0 401Z" fill="#727272"></path><path d="M0 180L20.8 180.8C41.7 181.7 83.3 183.3 125 190C166.7 196.7 208.3 208.3 250 210.2C291.7 212 333.3 204 375 204.7C416.7 205.3 458.3 214.7 500 217.3C541.7 220 583.3 216 625 214.2C666.7 212.3 708.3 212.7 750 212.3C791.7 212 833.3 211 875 212.8C916.7 214.7 958.3 219.3 979.2 221.7L1000 224L1000 401L979.2 401C958.3 401 916.7 401 875 401C833.3 401 791.7 401 750 401C708.3 401 666.7 401 625 401C583.3 401 541.7 401 500 401C458.3 401 416.7 401 375 401C333.3 401 291.7 401 250 401C208.3 401 166.7 401 125 401C83.3 401 41.7 401 20.8 401L0 401Z" fill="#656565"></path><path d="M0 243L20.8 239.2C41.7 235.3 83.3 227.7 125 223C166.7 218.3 208.3 216.7 250 221.5C291.7 226.3 333.3 237.7 375 240C416.7 242.3 458.3 235.7 500 228.8C541.7 222 583.3 215 625 217C666.7 219 708.3 230 750 230.3C791.7 230.7 833.3 220.3 875 214.7C916.7 209 958.3 208 979.2 207.5L1000 207L1000 401L979.2 401C958.3 401 916.7 401 875 401C833.3 401 791.7 401 750 401C708.3 401 666.7 401 625 401C583.3 401 541.7 401 500 401C458.3 401 416.7 401 375 401C333.3 401 291.7 401 250 401C208.3 401 166.7 401 125 401C83.3 401 41.7 401 20.8 401L0 401Z" fill="#656565"></path><path d="M0 253L20.8 251.2C41.7 249.3 83.3 245.7 125 249.2C166.7 252.7 208.3 263.3 250 264.2C291.7 265 333.3 256 375 254.2C416.7 252.3 458.3 257.7 500 256.7C541.7 255.7 583.3 248.3 625 247.3C666.7 246.3 708.3 251.7 750 253.3C791.7 255 833.3 253 875 255.3C916.7 257.7 958.3 264.3 979.2 267.7L1000 271L1000 401L979.2 401C958.3 401 916.7 401 875 401C833.3 401 791.7 401 750 401C708.3 401 666.7 401 625 401C583.3 401 541.7 401 500 401C458.3 401 416.7 401 375 401C333.3 401 291.7 401 250 401C208.3 401 166.7 401 125 401C83.3 401 41.7 401 20.8 401L0 401Z" fill="#727272"></path><path d="M0 266L20.8 268.7C41.7 271.3 83.3 276.7 125 280C166.7 283.3 208.3 284.7 250 281.8C291.7 279 333.3 272 375 268.8C416.7 265.7 458.3 266.3 500 267.3C541.7 268.3 583.3 269.7 625 274.7C666.7 279.7 708.3 288.3 750 293.7C791.7 299 833.3 301 875 301.8C916.7 302.7 958.3 302.3 979.2 302.2L1000 302L1000 401L979.2 401C958.3 401 916.7 401 875 401C833.3 401 791.7 401 750 401C708.3 401 666.7 401 625 401C583.3 401 541.7 401 500 401C458.3 401 416.7 401 375 401C333.3 401 291.7 401 250 401C208.3 401 166.7 401 125 401C83.3 401 41.7 401 20.8 401L0 401Z" fill="#939393"></path><path d="M0 315L20.8 311.8C41.7 308.7 83.3 302.3 125 302.3C166.7 302.3 208.3 308.7 250 308.5C291.7 308.3 333.3 301.7 375 298.2C416.7 294.7 458.3 294.3 500 296.3C541.7 298.3 583.3 302.7 625 304.5C666.7 306.3 708.3 305.7 750 309C791.7 312.3 833.3 319.7 875 318.7C916.7 317.7 958.3 308.3 979.2 303.7L1000 299L1000 401L979.2 401C958.3 401 916.7 401 875 401C833.3 401 791.7 401 750 401C708.3 401 666.7 401 625 401C583.3 401 541.7 401 500 401C458.3 401 416.7 401 375 401C333.3 401 291.7 401 250 401C208.3 401 166.7 401 125 401C83.3 401 41.7 401 20.8 401L0 401Z" fill="#b6b6b6"></path><path d="M0 331L20.8 331.8C41.7 332.7 83.3 334.3 125 334C166.7 333.7 208.3 331.3 250 333.5C291.7 335.7 333.3 342.3 375 344.3C416.7 346.3 458.3 343.7 500 342.7C541.7 341.7 583.3 342.3 625 342.8C666.7 343.3 708.3 343.7 750 340.5C791.7 337.3 833.3 330.7 875 328.8C916.7 327 958.3 330 979.2 331.5L1000 333L1000 401L979.2 401C958.3 401 916.7 401 875 401C833.3 401 791.7 401 750 401C708.3 401 666.7 401 625 401C583.3 401 541.7 401 500 401C458.3 401 416.7 401 375 401C333.3 401 291.7 401 250 401C208.3 401 166.7 401 125 401C83.3 401 41.7 401 20.8 401L0 401Z" fill="#dadada"></path><path d="M0 379L20.8 378.2C41.7 377.3 83.3 375.7 125 375.8C166.7 376 208.3 378 250 376.2C291.7 374.3 333.3 368.7 375 365.3C416.7 362 458.3 361 500 360.5C541.7 360 583.3 360 625 362.5C666.7 365 708.3 370 750 372C791.7 374 833.3 373 875 372.8C916.7 372.7 958.3 373.3 979.2 373.7L1000 374L1000 401L979.2 401C958.3 401 916.7 401 875 401C833.3 401 791.7 401 750 401C708.3 401 666.7 401 625 401C583.3 401 541.7 401 500 401C458.3 401 416.7 401 375 401C333.3 401 291.7 401 250 401C208.3 401 166.7 401 125 401C83.3 401 41.7 401 20.8 401L0 401Z" fill="#ffffff"></path></svg>