<svg id="visual" viewBox="0 0 1080 100" width="1080" height="100" xmlns="http://www.w3.org/2000/svg" xmlns:xlink="http://www.w3.org/1999/xlink" version="1.1"><rect x="0" y="0" width="1080" height="100" fill="#ffffff"></rect><path d="M0 63L25.7 62.2C51.3 61.3 102.7 59.7 154.2 57.5C205.7 55.3 257.3 52.7 308.8 55C360.3 57.3 411.7 64.7 463 70.5C514.3 76.3 565.7 80.7 617 75.5C668.3 70.3 719.7 55.7 771.2 51.3C822.7 47 874.3 53 925.8 57.3C977.3 61.7 1028.7 64.3 1054.3 65.7L1080 67L1080 0L1054.3 0C1028.7 0 977.3 0 925.8 0C874.3 0 822.7 0 771.2 0C719.7 0 668.3 0 617 0C565.7 0 514.3 0 463 0C411.7 0 360.3 0 308.8 0C257.3 0 205.7 0 154.2 0C102.7 0 51.3 0 25.7 0L0 0Z" fill="#d81616"></path><path d="M0 43L25.7 41C51.3 39 102.7 35 154.2 37.8C205.7 40.7 257.3 50.3 308.8 52.3C360.3 54.3 411.7 48.7 463 48.2C514.3 47.7 565.7 52.3 617 51.2C668.3 50 719.7 43 771.2 40.2C822.7 37.3 874.3 38.7 925.8 39C977.3 39.3 1028.7 38.7 1054.3 38.3L1080 38L1080 0L1054.3 0C1028.7 0 977.3 0 925.8 0C874.3 0 822.7 0 771.2 0C719.7 0 668.3 0 617 0C565.7 0 514.3 0 463 0C411.7 0 360.3 0 308.8 0C257.3 0 205.7 0 154.2 0C102.7 0 51.3 0 25.7 0L0 0Z" fill="#a60607"></path><path d="M0 28L25.7 29.2C51.3 30.3 102.7 32.7 154.2 36C205.7 39.3 257.3 43.7 308.8 42.5C360.3 41.3 411.7 34.7 463 30.5C514.3 26.3 565.7 24.7 617 23.2C668.3 21.7 719.7 20.3 771.2 24.7C822.7 29 874.3 39 925.8 42.5C977.3 46 1028.7 43 1054.3 41.5L1080 40L1080 0L1054.3 0C1028.7 0 977.3 0 925.8 0C874.3 0 822.7 0 771.2 0C719.7 0 668.3 0 617 0C565.7 0 514.3 0 463 0C411.7 0 360.3 0 308.8 0C257.3 0 205.7 0 154.2 0C102.7 0 51.3 0 25.7 0L0 0Z" fill="#720000"></path><path d="M0 29L25.7 29C51.3 29 102.7 29 154.2 28.8C205.7 28.7 257.3 28.3 308.8 24.5C360.3 20.7 411.7 13.3 463 12.5C514.3 11.7 565.7 17.3 617 21.8C668.3 26.3 719.7 29.7 771.2 27.7C822.7 25.7 874.3 18.3 925.8 15.3C977.3 12.3 1028.7 13.7 1054.3 14.3L1080 15L1080 0L1054.3 0C1028.7 0 977.3 0 925.8 0C874.3 0 822.7 0 771.2 0C719.7 0 668.3 0 617 0C565.7 0 514.3 0 463 0C411.7 0 360.3 0 308.8 0C257.3 0 205.7 0 154.2 0C102.7 0 51.3 0 25.7 0L0 0Z" fill="#000000"></path></svg>