<svg id="visual" viewBox="0 0 1080 100" width="1080" height="100" xmlns="http://www.w3.org/2000/svg" xmlns:xlink="http://www.w3.org/1999/xlink" version="1.1"><rect x="0" y="0" width="1080" height="100" fill="#ffffff"></rect><path d="M0 14L25.7 15.3C51.3 16.7 102.7 19.3 154.2 23C205.7 26.7 257.3 31.3 308.8 30.5C360.3 29.7 411.7 23.3 463 24.7C514.3 26 565.7 35 617 34.5C668.3 34 719.7 24 771.2 21.2C822.7 18.3 874.3 22.7 925.8 23.2C977.3 23.7 1028.7 20.3 1054.3 18.7L1080 17L1080 101L1054.3 101C1028.7 101 977.3 101 925.8 101C874.3 101 822.7 101 771.2 101C719.7 101 668.3 101 617 101C565.7 101 514.3 101 463 101C411.7 101 360.3 101 308.8 101C257.3 101 205.7 101 154.2 101C102.7 101 51.3 101 25.7 101L0 101Z" fill="#d81616"></path><path d="M0 52L25.7 50.8C51.3 49.7 102.7 47.3 154.2 48.8C205.7 50.3 257.3 55.7 308.8 55.5C360.3 55.3 411.7 49.7 463 49.2C514.3 48.7 565.7 53.3 617 55.5C668.3 57.7 719.7 57.3 771.2 57.8C822.7 58.3 874.3 59.7 925.8 57.8C977.3 56 1028.7 51 1054.3 48.5L1080 46L1080 101L1054.3 101C1028.7 101 977.3 101 925.8 101C874.3 101 822.7 101 771.2 101C719.7 101 668.3 101 617 101C565.7 101 514.3 101 463 101C411.7 101 360.3 101 308.8 101C257.3 101 205.7 101 154.2 101C102.7 101 51.3 101 25.7 101L0 101Z" fill="#a60607"></path><path d="M0 65L25.7 66.5C51.3 68 102.7 71 154.2 73.2C205.7 75.3 257.3 76.7 308.8 73.2C360.3 69.7 411.7 61.3 463 60.2C514.3 59 565.7 65 617 66C668.3 67 719.7 63 771.2 60.7C822.7 58.3 874.3 57.7 925.8 60.5C977.3 63.3 1028.7 69.7 1054.3 72.8L1080 76L1080 101L1054.3 101C1028.7 101 977.3 101 925.8 101C874.3 101 822.7 101 771.2 101C719.7 101 668.3 101 617 101C565.7 101 514.3 101 463 101C411.7 101 360.3 101 308.8 101C257.3 101 205.7 101 154.2 101C102.7 101 51.3 101 25.7 101L0 101Z" fill="#720000"></path><path d="M0 76L25.7 74.2C51.3 72.3 102.7 68.7 154.2 67.7C205.7 66.7 257.3 68.3 308.8 71.8C360.3 75.3 411.7 80.7 463 81C514.3 81.3 565.7 76.7 617 76C668.3 75.3 719.7 78.7 771.2 80.8C822.7 83 874.3 84 925.8 83.8C977.3 83.7 1028.7 82.3 1054.3 81.7L1080 81L1080 101L1054.3 101C1028.7 101 977.3 101 925.8 101C874.3 101 822.7 101 771.2 101C719.7 101 668.3 101 617 101C565.7 101 514.3 101 463 101C411.7 101 360.3 101 308.8 101C257.3 101 205.7 101 154.2 101C102.7 101 51.3 101 25.7 101L0 101Z" fill="#000000"></path></svg>