<svg id="visual" viewBox="0 0 1080 70" width="1080" height="70" xmlns="http://www.w3.org/2000/svg" xmlns:xlink="http://www.w3.org/1999/xlink" version="1.1"><rect x="0" y="0" width="1080" height="70" fill="#000000"></rect><path d="M0 36L15 32.3C30 28.7 60 21.3 90 20.8C120 20.3 150 26.7 180 24.8C210 23 240 13 270 9.3C300 5.7 330 8.3 360 13.5C390 18.7 420 26.3 450 28.5C480 30.7 510 27.3 540 31.7C570 36 600 48 630 47.5C660 47 690 34 720 25.2C750 16.3 780 11.7 810 14.8C840 18 870 29 900 32.2C930 35.3 960 30.7 990 24.5C1020 18.3 1050 10.7 1065 6.8L1080 3L1080 71L1065 71C1050 71 1020 71 990 71C960 71 930 71 900 71C870 71 840 71 810 71C780 71 750 71 720 71C690 71 660 71 630 71C600 71 570 71 540 71C510 71 480 71 450 71C420 71 390 71 360 71C330 71 300 71 270 71C240 71 210 71 180 71C150 71 120 71 90 71C60 71 30 71 15 71L0 71Z" fill="#198754"></path><path d="M0 41L15 41.2C30 41.3 60 41.7 90 39.7C120 37.7 150 33.3 180 30.8C210 28.3 240 27.7 270 25.5C300 23.3 330 19.7 360 22C390 24.3 420 32.7 450 37.7C480 42.7 510 44.3 540 40.3C570 36.3 600 26.7 630 26.2C660 25.7 690 34.3 720 34.3C750 34.3 780 25.7 810 23.8C840 22 870 27 900 32.8C930 38.7 960 45.3 990 47C1020 48.7 1050 45.3 1065 43.7L1080 42L1080 71L1065 71C1050 71 1020 71 990 71C960 71 930 71 900 71C870 71 840 71 810 71C780 71 750 71 720 71C690 71 660 71 630 71C600 71 570 71 540 71C510 71 480 71 450 71C420 71 390 71 360 71C330 71 300 71 270 71C240 71 210 71 180 71C150 71 120 71 90 71C60 71 30 71 15 71L0 71Z" fill="#5ea782"></path><path d="M0 32L15 35.3C30 38.7 60 45.3 90 46.3C120 47.3 150 42.7 180 41.2C210 39.7 240 41.3 270 42.5C300 43.7 330 44.3 360 47C390 49.7 420 54.3 450 53.5C480 52.7 510 46.3 540 46C570 45.7 600 51.3 630 50.8C660 50.3 690 43.7 720 43C750 42.3 780 47.7 810 49.5C840 51.3 870 49.7 900 47.7C930 45.7 960 43.3 990 45.3C1020 47.3 1050 53.7 1065 56.8L1080 60L1080 71L1065 71C1050 71 1020 71 990 71C960 71 930 71 900 71C870 71 840 71 810 71C780 71 750 71 720 71C690 71 660 71 630 71C600 71 570 71 540 71C510 71 480 71 450 71C420 71 390 71 360 71C330 71 300 71 270 71C240 71 210 71 180 71C150 71 120 71 90 71C60 71 30 71 15 71L0 71Z" fill="#97c7b0"></path><path d="M0 57L15 55.5C30 54 60 51 90 51.3C120 51.7 150 55.3 180 56.8C210 58.3 240 57.7 270 58.7C300 59.7 330 62.3 360 61.7C390 61 420 57 450 56.5C480 56 510 59 540 57.7C570 56.3 600 50.7 630 51.3C660 52 690 59 720 59.2C750 59.3 780 52.7 810 50.7C840 48.7 870 51.3 900 51.7C930 52 960 50 990 51C1020 52 1050 56 1065 58L1080 60L1080 71L1065 71C1050 71 1020 71 990 71C960 71 930 71 900 71C870 71 840 71 810 71C780 71 750 71 720 71C690 71 660 71 630 71C600 71 570 71 540 71C510 71 480 71 450 71C420 71 390 71 360 71C330 71 300 71 270 71C240 71 210 71 180 71C150 71 120 71 90 71C60 71 30 71 15 71L0 71Z" fill="#d1e7dd"></path></svg>