<svg id="visual" viewBox="0 0 1080 80" width="1080" height="80" xmlns="http://www.w3.org/2000/svg" xmlns:xlink="http://www.w3.org/1999/xlink" version="1.1"><rect x="0" y="0" width="1080" height="80" fill="#ffffff"></rect><path d="M0 18L25.7 16.8C51.3 15.7 102.7 13.3 154.2 13.2C205.7 13 257.3 15 308.8 16C360.3 17 411.7 17 463 18.5C514.3 20 565.7 23 617 24.8C668.3 26.7 719.7 27.3 771.2 29.7C822.7 32 874.3 36 925.8 33.8C977.3 31.7 1028.7 23.3 1054.3 19.2L1080 15L1080 81L1054.3 81C1028.7 81 977.3 81 925.8 81C874.3 81 822.7 81 771.2 81C719.7 81 668.3 81 617 81C565.7 81 514.3 81 463 81C411.7 81 360.3 81 308.8 81C257.3 81 205.7 81 154.2 81C102.7 81 51.3 81 25.7 81L0 81Z" fill="#d81616"></path><path d="M0 50L25.7 47.2C51.3 44.3 102.7 38.7 154.2 37.5C205.7 36.3 257.3 39.7 308.8 38.8C360.3 38 411.7 33 463 34C514.3 35 565.7 42 617 46.2C668.3 50.3 719.7 51.7 771.2 47.3C822.7 43 874.3 33 925.8 33.2C977.3 33.3 1028.7 43.7 1054.3 48.8L1080 54L1080 81L1054.3 81C1028.7 81 977.3 81 925.8 81C874.3 81 822.7 81 771.2 81C719.7 81 668.3 81 617 81C565.7 81 514.3 81 463 81C411.7 81 360.3 81 308.8 81C257.3 81 205.7 81 154.2 81C102.7 81 51.3 81 25.7 81L0 81Z" fill="#a60607"></path><path d="M0 45L25.7 44.8C51.3 44.7 102.7 44.3 154.2 44C205.7 43.7 257.3 43.3 308.8 46.5C360.3 49.7 411.7 56.3 463 56.7C514.3 57 565.7 51 617 46.8C668.3 42.7 719.7 40.3 771.2 41.2C822.7 42 874.3 46 925.8 47.3C977.3 48.7 1028.7 47.3 1054.3 46.7L1080 46L1080 81L1054.3 81C1028.7 81 977.3 81 925.8 81C874.3 81 822.7 81 771.2 81C719.7 81 668.3 81 617 81C565.7 81 514.3 81 463 81C411.7 81 360.3 81 308.8 81C257.3 81 205.7 81 154.2 81C102.7 81 51.3 81 25.7 81L0 81Z" fill="#720000"></path><path d="M0 63L25.7 64C51.3 65 102.7 67 154.2 67.2C205.7 67.3 257.3 65.7 308.8 66.5C360.3 67.3 411.7 70.7 463 71.8C514.3 73 565.7 72 617 69.3C668.3 66.7 719.7 62.3 771.2 62.2C822.7 62 874.3 66 925.8 67.8C977.3 69.7 1028.7 69.3 1054.3 69.2L1080 69L1080 81L1054.3 81C1028.7 81 977.3 81 925.8 81C874.3 81 822.7 81 771.2 81C719.7 81 668.3 81 617 81C565.7 81 514.3 81 463 81C411.7 81 360.3 81 308.8 81C257.3 81 205.7 81 154.2 81C102.7 81 51.3 81 25.7 81L0 81Z" fill="#000000"></path></svg>